<?xml version="1.0" encoding="utf-8"?>
<!-- Generator: Adobe Illustrator 24.0.0, SVG Export Plug-In . SVG Version: 6.00 Build 0)  -->
<svg version="1.1" id="Layer_1" xmlns="http://www.w3.org/2000/svg" xmlns:xlink="http://www.w3.org/1999/xlink" x="0px" y="0px"
	 viewBox="0 0 222 48" style="enable-background:new 0 0 222 48;" xml:space="preserve">
<style type="text/css">
	.st0{fill:#1E4485;}
	.st1{fill:#FEE700;}
	.st2{fill:#FFFFFF;}
</style>
<path class="st0" d="M61.6,30.4c-0.2,0-0.4-0.1-0.6-0.2c-0.2-0.2-0.2-0.3-0.2-0.6V10.3c0-0.2,0.1-0.4,0.2-0.6
	c0.2-0.2,0.3-0.2,0.6-0.2h8.8c1.3,0,2.3,0.2,3.2,0.6c0.9,0.4,1.5,0.9,2.1,1.5c0.5,0.6,0.9,1.2,1.1,1.9c0.2,0.7,0.3,1.3,0.3,1.9
	s-0.1,1.1-0.2,1.6c-0.2,0.5-0.4,0.9-0.6,1.2c-0.2,0.3-0.5,0.6-0.7,0.8c-0.2,0.2-0.4,0.4-0.6,0.5c0.6,0.4,1.2,1,1.7,1.8
	c0.5,0.8,0.8,1.7,0.8,2.9c0,0.8-0.1,1.5-0.4,2.3c-0.3,0.7-0.7,1.4-1.2,2c-0.5,0.6-1.2,1.1-2,1.5c-0.8,0.4-1.7,0.6-2.8,0.6H61.6z
	 M73.1,15.6c0-0.8-0.2-1.3-0.7-1.7c-0.5-0.4-1.2-0.6-2.3-0.6h-5.3v4.6h5.3c1,0,1.8-0.2,2.3-0.6C72.9,16.9,73.1,16.3,73.1,15.6z
	 M64.9,26.7h5.5c1.1,0,1.9-0.2,2.4-0.7s0.8-1.1,0.8-1.8c0-0.8-0.3-1.4-0.8-1.9c-0.5-0.5-1.3-0.7-2.4-0.7h-5.5V26.7z"/>
<path class="st0" d="M95.3,26.7c0.2,0,0.4,0.1,0.6,0.2c0.2,0.2,0.2,0.3,0.2,0.6v2.1c0,0.2-0.1,0.4-0.2,0.6c-0.2,0.2-0.3,0.2-0.6,0.2
	H82.1c-0.2,0-0.4-0.1-0.6-0.2c-0.2-0.2-0.2-0.3-0.2-0.6V10.3c0-0.2,0.1-0.4,0.2-0.6c0.2-0.2,0.3-0.2,0.6-0.2h2.4
	c0.2,0,0.4,0.1,0.6,0.2c0.2,0.2,0.2,0.4,0.2,0.6v16.4H95.3z"/>
<path class="st0" d="M112.9,26.7c0.2,0,0.4,0.1,0.6,0.2c0.2,0.2,0.2,0.3,0.2,0.6v2.1c0,0.2-0.1,0.4-0.2,0.6
	c-0.2,0.2-0.3,0.2-0.6,0.2H99.7c-0.2,0-0.4-0.1-0.6-0.2c-0.2-0.2-0.2-0.3-0.2-0.6V10.3c0-0.2,0.1-0.4,0.2-0.6
	c0.2-0.2,0.3-0.2,0.6-0.2h12.9c0.2,0,0.4,0.1,0.6,0.2c0.2,0.2,0.2,0.4,0.2,0.6v2.1c0,0.2-0.1,0.4-0.2,0.6c-0.2,0.2-0.3,0.2-0.6,0.2
	H103V18h9c0.2,0,0.4,0.1,0.6,0.2c0.2,0.2,0.2,0.3,0.2,0.6v2.1c0,0.2-0.1,0.4-0.2,0.6c-0.2,0.2-0.3,0.2-0.6,0.2h-9v5H112.9z"/>
<path class="st0" d="M124.6,9.2c1.3,0,2.5,0.2,3.5,0.5c1,0.4,1.9,0.8,2.5,1.3s1.2,1.1,1.5,1.8c0.3,0.6,0.5,1.3,0.6,1.8
	c0,0.2-0.1,0.4-0.2,0.6c-0.2,0.2-0.4,0.2-0.6,0.2h-2.1c-0.3,0-0.6-0.1-0.8-0.2c-0.2-0.1-0.3-0.3-0.5-0.5c-0.3-0.5-0.8-0.9-1.4-1.3
	c-0.6-0.4-1.5-0.6-2.7-0.6c-0.5,0-1,0.1-1.5,0.2c-0.5,0.1-0.9,0.3-1.2,0.5c-0.3,0.2-0.6,0.5-0.8,0.8c-0.2,0.3-0.3,0.6-0.3,1
	c0,0.5,0.1,0.8,0.3,1.1c0.2,0.3,0.5,0.5,1,0.7c0.4,0.2,1,0.4,1.8,0.6c0.7,0.2,1.7,0.4,2.8,0.6c1.2,0.3,2.2,0.6,3.1,0.9
	c0.9,0.3,1.6,0.8,2.1,1.3c0.5,0.5,1,1.1,1.2,1.7c0.3,0.6,0.4,1.4,0.4,2.2c0,0.9-0.2,1.7-0.6,2.5c-0.4,0.8-1,1.4-1.7,2
	c-0.7,0.6-1.6,1-2.7,1.3c-1.1,0.3-2.3,0.5-3.6,0.5c-1.1,0-2.2-0.1-3.2-0.4c-1-0.3-1.9-0.7-2.7-1.2c-0.8-0.5-1.4-1.1-1.9-1.8
	c-0.5-0.7-0.7-1.5-0.8-2.4c0-0.2,0.1-0.4,0.2-0.6s0.4-0.2,0.6-0.2h2.1c0.3,0,0.6,0.1,0.8,0.2c0.2,0.1,0.3,0.3,0.5,0.5
	c0.1,0.3,0.3,0.5,0.5,0.8c0.2,0.3,0.5,0.5,0.8,0.7c0.3,0.2,0.8,0.4,1.3,0.5c0.5,0.1,1.1,0.2,1.9,0.2c0.6,0,1.2,0,1.7-0.1
	c0.6-0.1,1-0.2,1.5-0.5c0.4-0.2,0.8-0.5,1-0.8c0.3-0.3,0.4-0.7,0.4-1.2c0-0.4-0.1-0.8-0.4-1.1c-0.3-0.3-0.7-0.5-1.3-0.7
	c-0.6-0.2-1.3-0.4-2.1-0.6c-0.8-0.2-1.8-0.4-2.9-0.7c-1-0.2-1.9-0.5-2.6-0.9c-0.7-0.3-1.4-0.7-1.9-1.2c-0.5-0.5-0.9-1-1.1-1.7
	c-0.2-0.6-0.4-1.4-0.4-2.3c0-0.9,0.2-1.7,0.6-2.5c0.4-0.8,0.9-1.4,1.6-1.9c0.7-0.5,1.5-1,2.5-1.3C122.4,9.4,123.4,9.2,124.6,9.2z"/>
<path class="st0" d="M144,9.2c1.3,0,2.5,0.2,3.5,0.5c1,0.4,1.9,0.8,2.5,1.3s1.2,1.1,1.5,1.8c0.3,0.6,0.5,1.3,0.6,1.8
	c0,0.2-0.1,0.4-0.2,0.6c-0.2,0.2-0.4,0.2-0.6,0.2h-2.1c-0.3,0-0.6-0.1-0.8-0.2c-0.2-0.1-0.3-0.3-0.5-0.5c-0.3-0.5-0.8-0.9-1.4-1.3
	c-0.6-0.4-1.5-0.6-2.7-0.6c-0.5,0-1,0.1-1.5,0.2c-0.5,0.1-0.9,0.3-1.2,0.5c-0.3,0.2-0.6,0.5-0.8,0.8c-0.2,0.3-0.3,0.6-0.3,1
	c0,0.5,0.1,0.8,0.3,1.1c0.2,0.3,0.5,0.5,1,0.7c0.4,0.2,1,0.4,1.8,0.6c0.7,0.2,1.7,0.4,2.8,0.6c1.2,0.3,2.2,0.6,3.1,0.9
	c0.9,0.3,1.6,0.8,2.1,1.3c0.5,0.5,1,1.1,1.2,1.7c0.3,0.6,0.4,1.4,0.4,2.2c0,0.9-0.2,1.7-0.6,2.5c-0.4,0.8-1,1.4-1.7,2
	c-0.7,0.6-1.6,1-2.7,1.3c-1.1,0.3-2.3,0.5-3.6,0.5c-1.1,0-2.2-0.1-3.2-0.4c-1-0.3-1.9-0.7-2.7-1.2s-1.4-1.1-1.9-1.8
	c-0.5-0.7-0.7-1.5-0.8-2.4c0-0.2,0.1-0.4,0.2-0.6s0.4-0.2,0.6-0.2h2.1c0.3,0,0.6,0.1,0.8,0.2c0.2,0.1,0.3,0.3,0.5,0.5
	c0.1,0.3,0.3,0.5,0.5,0.8c0.2,0.3,0.5,0.5,0.8,0.7c0.3,0.2,0.8,0.4,1.3,0.5c0.5,0.1,1.1,0.2,1.9,0.2c0.6,0,1.2,0,1.7-0.1
	c0.6-0.1,1-0.2,1.5-0.5c0.4-0.2,0.8-0.5,1-0.8c0.3-0.3,0.4-0.7,0.4-1.2c0-0.4-0.1-0.8-0.4-1.1c-0.3-0.3-0.7-0.5-1.3-0.7
	c-0.6-0.2-1.3-0.4-2.1-0.6c-0.8-0.2-1.8-0.4-2.9-0.7c-1-0.2-1.9-0.5-2.6-0.9c-0.7-0.3-1.4-0.7-1.9-1.2c-0.5-0.5-0.9-1-1.1-1.7
	c-0.2-0.6-0.4-1.4-0.4-2.3c0-0.9,0.2-1.7,0.6-2.5c0.4-0.8,0.9-1.4,1.6-1.9c0.7-0.5,1.5-1,2.5-1.3C141.8,9.4,142.8,9.2,144,9.2z"/>
<path class="st0" d="M169.4,26.5c-0.4,0.6-0.8,1.1-1.4,1.4c-0.5,0.4-1.2,0.6-1.9,0.8c-0.7,0.1-1.5,0.2-2.4,0.2c-2,0-3.5-0.5-4.6-1.5
	c-1.1-1-1.8-2.7-1.8-4.9c-0.1-1.7-0.1-3.4,0-5c0.1-2.3,0.7-3.9,1.8-4.9c1.1-1,2.7-1.5,4.6-1.5c0.9,0,1.6,0.1,2.4,0.2
	c0.7,0.2,1.3,0.4,1.9,0.8c0.6,0.3,1,0.8,1.4,1.4c0.1,0.2,0.2,0.4,0.3,0.5c0.4,1.3,2.5,1.2,2.2,0c0-0.1-0.1-0.3-0.2-0.5
	c-0.3-0.7-0.8-1.5-1.5-2.1c-0.7-0.6-1.6-1.2-2.6-1.6c-1.1-0.4-2.4-0.6-3.9-0.6c-1.5,0-2.7,0.2-3.7,0.6c-1.1,0.4-1.9,1-2.6,1.7
	c-0.7,0.7-1.2,1.6-1.5,2.6c-0.4,1-0.5,2.1-0.6,3.2c0,0.9-0.1,1.7-0.1,2.7c0,1,0,1.8,0.1,2.6c0.1,1.2,0.2,2.3,0.6,3.2
	c0.3,1,0.8,1.8,1.5,2.6s1.6,1.3,2.6,1.7c1,0.4,2.3,0.6,3.7,0.6c1.5,0,2.8-0.2,3.9-0.6c1.1-0.4,1.9-0.9,2.6-1.6
	c0.7-0.6,1.2-1.3,1.5-2.1c0.1-0.2,0.1-0.3,0.2-0.5c0.2-1.2-1.8-1.4-2.2,0C169.6,26.2,169.5,26.4,169.4,26.5z"/>
<path class="st0" d="M183.2,9.2c1.2,0,2.2,0.2,3.2,0.5c1,0.3,1.8,0.9,2.5,1.5s1.2,1.5,1.6,2.6c0.4,1,0.6,2.2,0.6,3.6
	c0,0.9,0.1,1.7,0.1,2.5s0,1.6-0.1,2.5c-0.1,2.8-0.8,4.9-2.2,6.3c-1.4,1.3-3.3,2-5.7,2c-2.5,0-4.4-0.7-5.8-2
	c-1.3-1.3-2.1-3.4-2.1-6.3c0-0.9-0.1-1.7-0.1-2.5s0-1.6,0.1-2.5c0-1.4,0.3-2.6,0.6-3.6c0.4-1,0.9-1.9,1.6-2.6s1.5-1.2,2.5-1.5
	C181,9.4,182,9.2,183.2,9.2z M183.2,11c-0.8,0-1.6,0.1-2.3,0.4c-0.7,0.2-1.3,0.6-1.9,1.2c-0.5,0.5-1,1.2-1.3,2.1
	c-0.3,0.8-0.5,1.8-0.5,3c0,0.5,0,0.9,0,1.3c0,0.4,0,0.7,0,1.1c0,0.4,0,0.7,0,1.1c0,0.4,0,0.8,0,1.2c0,1.2,0.2,2.2,0.5,3
	c0.3,0.8,0.7,1.5,1.3,2c0.5,0.5,1.2,0.9,1.9,1.2c0.7,0.3,1.5,0.4,2.4,0.4s1.6-0.1,2.4-0.4c0.7-0.3,1.3-0.6,1.9-1.2
	c0.5-0.5,0.9-1.2,1.3-2c0.3-0.8,0.5-1.8,0.5-3c0-0.4,0-0.9,0-1.2c0-0.4,0-0.8,0-1.1c0-0.4,0-0.7,0-1.1c0-0.4,0-0.8,0-1.3
	c0-1.2-0.2-2.2-0.5-3c-0.3-0.8-0.7-1.5-1.3-2.1c-0.5-0.5-1.2-0.9-1.9-1.2C184.8,11.1,184,11,183.2,11z"/>
<path class="st0" d="M197.8,13.3v16.5c0,0.4-0.2,0.7-0.7,0.7h-0.5c-0.4,0-0.7-0.2-0.7-0.7V10.2c0-0.5,0.2-0.7,0.7-0.7h0.6
	c0.2,0,0.3,0.1,0.4,0.1c0.1,0.1,0.2,0.2,0.2,0.2l11,16.9V10.2c0-0.5,0.2-0.7,0.7-0.7h0.5c0.5,0,0.7,0.2,0.7,0.7v19.6
	c0,0.5-0.2,0.7-0.7,0.7h-0.7c-0.2,0-0.3-0.1-0.4-0.2c-0.1-0.1-0.2-0.2-0.2-0.2L197.8,13.3z"/>
<g>
	<path class="st0" d="M30.2,3c-0.8,2.5-1.9,6.2-2.3,12.5c-8.4,0.3-13.4,2.1-15.4,2.7c-0.5-3.8-0.3-6.4-0.3-6.4
		C21.6,3.6,29.3,3,30.2,3"/>
	<path class="st0" d="M30.2,45.3c-12.7-6.6-16.6-18.4-17.7-26.1c4.1,1.2,10.4,2.4,15.1,2.7C27.5,28.6,28.1,35.4,30.2,45.3"/>
	<path class="st1" d="M31.5,3c0.8,2.5,1.9,6.2,2.3,12.4c8.4,0.3,13.4,2.2,15.4,2.8c0.5-3.8,0.3-6.4,0.3-6.4C40,3.6,32.3,3,31.5,3"/>
	<path class="st1" d="M31.4,45.3C44.1,38.7,48,26.9,49.1,19.2c-3.9,1.2-10.5,2.4-15.1,2.7C34.2,28.6,33.6,35.4,31.4,45.3"/>
</g>
<path class="st0" d="M72.5,41.4c0.3,0.3,0.4,0.8,0.4,1.3c0,0.7-0.3,1.3-0.8,1.6c-0.5,0.4-1.3,0.6-2.3,0.6h-3.9v-8.2h3.7
	c0.9,0,1.7,0.2,2.2,0.6c0.5,0.4,0.8,0.9,0.8,1.6c0,0.4-0.1,0.8-0.3,1.1c-0.2,0.3-0.5,0.6-0.8,0.7C71.8,40.8,72.2,41,72.5,41.4z
	 M67,37.7v2.6h2.4c0.6,0,1.1-0.1,1.4-0.3c0.3-0.2,0.5-0.6,0.5-1s-0.2-0.8-0.5-1c-0.3-0.2-0.8-0.3-1.4-0.3H67z M71.2,43.6
	c0.3-0.2,0.5-0.6,0.5-1c0-0.9-0.7-1.4-2-1.4H67V44h2.7C70.3,44,70.8,43.9,71.2,43.6z"/>
<path class="st0" d="M85.8,42.9h-4.4l-0.9,2.1h-1.2l3.7-8.2h1.2l3.7,8.2h-1.2L85.8,42.9z M85.4,41.9l-1.8-4l-1.8,4H85.4z"/>
<path class="st0" d="M96.3,37.7h-2.8v-1h6.8v1h-2.8v7.2h-1.2V37.7z"/>
<path class="st0" d="M112.3,42.9h-4.4l-0.9,2.1h-1.2l3.7-8.2h1.2l3.7,8.2h-1.2L112.3,42.9z M111.8,41.9l-1.8-4l-1.8,4H111.8z"/>
<path class="st0" d="M136,44.9l-1.8-2.5c-0.2,0-0.4,0-0.5,0h-2v2.5h-1.2v-8.2h3.2c1.1,0,1.9,0.3,2.5,0.8c0.6,0.5,0.9,1.2,0.9,2.1
	c0,0.6-0.2,1.2-0.5,1.6c-0.3,0.4-0.8,0.8-1.3,1l2,2.8H136z M135.4,40.9c0.4-0.3,0.6-0.8,0.6-1.4c0-0.6-0.2-1.1-0.6-1.4
	c-0.4-0.3-1-0.5-1.7-0.5h-2v3.7h2C134.5,41.4,135,41.3,135.4,40.9z"/>
<path class="st0" d="M145,36.7h1.2v8.2H145V36.7z"/>
<path class="st0" d="M161.6,36.7v8.2h-1l-4.9-6.1v6.1h-1.2v-8.2h1l4.9,6.1v-6.1H161.6z"/>
<path class="st0" d="M175.6,40.8h1.1V44c-0.4,0.3-0.9,0.6-1.4,0.8c-0.5,0.2-1.1,0.3-1.7,0.3c-0.8,0-1.6-0.2-2.2-0.5
	c-0.7-0.4-1.2-0.9-1.6-1.5c-0.4-0.6-0.6-1.4-0.6-2.2c0-0.8,0.2-1.5,0.6-2.2c0.4-0.6,0.9-1.1,1.6-1.5c0.7-0.4,1.4-0.5,2.3-0.5
	c0.7,0,1.3,0.1,1.8,0.3c0.5,0.2,1,0.5,1.4,0.9l-0.7,0.7c-0.7-0.6-1.5-1-2.4-1c-0.6,0-1.2,0.1-1.7,0.4c-0.5,0.3-0.9,0.6-1.2,1.1
	c-0.3,0.5-0.4,1-0.4,1.6c0,0.6,0.1,1.1,0.4,1.6c0.3,0.5,0.7,0.9,1.2,1.1c0.5,0.3,1.1,0.4,1.7,0.4c0.7,0,1.4-0.2,1.9-0.5V40.8z"/>
<path class="st0" d="M190.1,42.9h-4.4l-0.9,2.1h-1.2l3.7-8.2h1.2l3.7,8.2H191L190.1,42.9z M189.7,41.9l-1.8-4l-1.8,4H189.7z"/>
<path class="st0" d="M206.4,36.7v8.2h-1l-4.9-6.1v6.1h-1.2v-8.2h1l4.9,6.1v-6.1H206.4z"/>
</svg>
